<svg width="47" height="43" viewBox="0 0 47 43" fill="none" xmlns="http://www.w3.org/2000/svg">
<ellipse cx="23.5" cy="21.5" rx="23.5" ry="21.5" fill="white"/>
<path d="M33.2491 30V18.7965C33.7667 18.6544 34.242 18.4367 34.6476 18.1559C35.0532 17.8751 35.3812 17.5367 35.6127 17.1601C35.8442 16.7836 35.9747 16.3763 35.9967 15.9616C36.0187 15.547 35.9317 15.1332 35.7408 14.7439C35.5498 14.3547 35.2587 13.9976 34.8841 13.6934C34.5095 13.3891 34.0588 13.1435 33.5579 12.9708C33.057 12.7981 32.5157 12.7016 31.9651 12.6869C31.4146 12.6721 30.8656 12.7395 30.3496 12.885C29.8339 10.9677 26.9205 9 23.4913 9C20.0621 9 17.1488 10.9677 16.633 12.885C15.5923 12.5954 14.4414 12.629 13.4337 12.9786C12.4259 13.3281 11.6437 13.9648 11.2592 14.7487C10.8747 15.5327 10.9194 16.3995 11.3834 17.1586C11.8475 17.9177 12.6928 18.5069 13.7335 18.7965V30H33.2491Z" fill="white"/>
<path d="M33.2491 25.8H13.7335M23.4913 25.8V19.5M27.6732 25.8V21.6M19.3094 25.8V21.6M33.2491 30V18.7965C33.7667 18.6544 34.242 18.4367 34.6476 18.1559C35.0532 17.8751 35.3812 17.5367 35.6127 17.1601C35.8442 16.7836 35.9747 16.3763 35.9967 15.9616C36.0187 15.547 35.9317 15.1332 35.7408 14.7439C35.5498 14.3547 35.2587 13.9976 34.8841 13.6934C34.5095 13.3891 34.0588 13.1435 33.5579 12.9708C33.057 12.7981 32.5157 12.7016 31.9651 12.6869C31.4146 12.6721 30.8656 12.7395 30.3496 12.885C29.8339 10.9677 26.9205 9 23.4913 9C20.0621 9 17.1488 10.9677 16.633 12.885C15.5923 12.5954 14.4414 12.629 13.4337 12.9786C12.4259 13.3281 11.6437 13.9648 11.2592 14.7487C10.8747 15.5327 10.9194 16.3995 11.3834 17.1586C11.8475 17.9177 12.6928 18.5069 13.7335 18.7965V30H33.2491Z" stroke="#020202" stroke-width="2"/>
</svg>
