<svg width="13" height="12" viewBox="0 0 13 12" fill="none" xmlns="http://www.w3.org/2000/svg">
<path d="M11.5556 0H1.44444C0.65 0 0 0.6 0 1.33333V10.6667C0 11.4007 0.65 12 1.44444 12H11.5556C12.35 12 13 11.4007 13 10.6667V1.33333C13 0.6 12.35 0 11.5556 0ZM6.48844 9.682C7.54929 9.68182 8.56662 9.2927 9.31668 8.60021C10.0667 7.90772 10.4881 6.96857 10.4881 5.98933C10.4881 5.764 10.4571 5.54667 10.4137 5.33333H11.5556V10.144C11.5556 10.2046 11.5426 10.2646 11.5174 10.3205C11.4922 10.3764 11.4553 10.4272 11.4088 10.47C11.3623 10.5127 11.3071 10.5466 11.2464 10.5696C11.1857 10.5926 11.1207 10.6043 11.0551 10.604H1.94494C1.87932 10.6043 1.81429 10.5926 1.75358 10.5696C1.69286 10.5466 1.63767 10.5127 1.59117 10.47C1.54466 10.4272 1.50776 10.3764 1.48258 10.3205C1.4574 10.2646 1.44444 10.2046 1.44444 10.144V5.33333H2.56317C2.51911 5.54667 2.48806 5.764 2.48806 5.98933C2.48825 6.96864 2.90978 7.90778 3.65995 8.60025C4.41013 9.29272 5.42753 9.68182 6.48844 9.682ZM3.98883 5.98933C3.98883 5.68633 4.05349 5.38629 4.1791 5.10636C4.30472 4.82642 4.48884 4.57206 4.72095 4.3578C4.95306 4.14355 5.22862 3.97359 5.53188 3.85764C5.83515 3.74168 6.16019 3.682 6.48844 3.682C6.8167 3.682 7.14174 3.74168 7.445 3.85764C7.74827 3.97359 8.02383 4.14355 8.25594 4.3578C8.48805 4.57206 8.67217 4.82642 8.79778 5.10636C8.9234 5.38629 8.98806 5.68633 8.98806 5.98933C8.98806 6.60128 8.7247 7.18816 8.25594 7.62086C7.78717 8.05357 7.15138 8.29667 6.48844 8.29667C5.82551 8.29667 5.18972 8.05357 4.72095 7.62086C4.25218 7.18816 3.98883 6.60128 3.98883 5.98933ZM11.0551 3.33333H9.88867C9.75624 3.33298 9.62934 3.28426 9.53569 3.19782C9.44205 3.11138 9.38927 2.99425 9.38889 2.872V1.794C9.38889 1.53933 9.61278 1.33333 9.88794 1.33333H11.0543C11.3317 1.33333 11.5556 1.53933 11.5556 1.794V2.87133C11.5556 3.12533 11.3317 3.33333 11.0551 3.33333Z" fill="#F8F8F8"/>
</svg>
